Mission.Impossible.Ghost.Protocol.2011.PL.BRRip.XviD-RLF
~~~~~~~~~~~~~~~~~~~~~~~~~~~~~~~~~~~~~~~~~~~~~~~~~~~~~~~~

GENERAL:


Complete name                    : rlf-protocol-pl.avi
Format                           : AVI
Format/Info                      : Audio Video Interleave
File size                        : 1.35 GiB
Duration                         : 2h 12mn
Overall bit rate                 : 1 453 Kbps
Language                         : Polish
Subs                             : English, English forced 
Encoder                          : Ralf

Video:

                     
Format                           : MPEG-4 Visual
Format profile                   : Advanced Simple@L5
Format settings, BVOP            : 2
Format settings, QPel            : No
Format settings, GMC             : No warppoints
Format settings, Matrix          : H.263
Muxing mode                      : Packed bitstream
Codec ID                         : XVID
Duration                         : 2h 12mn
Bit rate                         : 1 059 Kbps
Width                            : 688 pixels
Height                           : 288 pixels
Display aspect ratio             : 2.35:1
Color space                      : YUV
Chroma subsampling               : 4:2:0
Bit depth                        : 8 bits
Scan type                        : Progressive
Bits/(Pixel Frame)               : 0.223
Stream size                      : 1007 MiB (84%)      
Stream size                      : Xvid 64

Audio:

Format                           : AC-3
Format/Info                      : Audio Coding 3
Duration                         : 2h 12mn
Bit rate mode                    : Constant
Bit rate                         : 384 Kbps
Channel(s)                       : 6 channels
Channel positions                : Front: L C R, Side: L R, LFE
Sampling rate                    : 48.0 KHz
Bit depth                        : 16 bits
Delay relative to video          : 13ms
Stream size                      : 365 MiB (26%)
Alignment                        : Split accross interleaves
Interleave, duration             : 42 ms (1.00 video frame)
Interleave, preload duration     : 500 ms
                   

MOVIE INFO:


Oskarzony o terrorystyczny zamach bombowy na Kreml, agent IMF Ethan Hunt 
wraz z reszta zespolu zostaje zwolniony z obowiazkow w chwili, kiedy 
prezydent wdraza Ghost Protocol. Pozostawiony bez srodkow i wsparcia, 
Ethan musi znalezc sposob na oczyszczenie dobrego imienia agencji oraz 
uniemozliwienie kolejnego ataku. 
                                          
 
http://www.imdb.com/title/tt1229238/ 
http://www.filmweb.pl/film/Mission%3A+Impossible+-+Ghost+Protocol-2011-483087

                                               
SOURCE:


SPARKS 720p.BluRay.x264 / TTG's Dolby Digital (THX)


SCREENS:
 
http://image.bayimg.com/iaodfaade.jpg 
http://image.bayimg.com/iaodhaade.jpg 
http://image.bayimg.com/iaodiaade.jpg 
http://image.bayimg.com/iaodkaade.jpg

